# This file uses centimeters as units for non-parametric coordinates.

mtllib FridgePuertaSuperiorManija.mtl
g default
v -0.299076 1.866650 0.324231
v -0.350314 1.866650 0.338043
v -0.311421 2.356605 0.354393
v -0.339041 2.360006 0.361841
v -0.332897 2.229154 0.380458
v -0.302720 2.229154 0.372325
v -0.330156 1.884420 0.379720
v -0.292985 1.884420 0.369699
v -0.330095 1.876859 0.379704
v -0.292793 1.877626 0.369647
v -0.299555 1.884420 0.324359
v -0.308833 2.229154 0.326860
v -0.351119 2.229154 0.338259
v -0.351433 2.369433 0.338343
v -0.350354 1.884420 0.338054
v -0.312597 2.369008 0.327876
vt 0.307100 0.818300
vt 0.300400 0.819200
vt 0.300700 0.786100
vt 0.307900 0.786100
vt 0.301300 0.707200
vt 0.310200 0.707200
vt 0.301200 0.701900
vt 0.310000 0.702500
vt 0.299100 0.821500
vt 0.299100 0.786100
vt 0.299300 0.707200
vt 0.311500 0.707200
vt 0.310700 0.695000
vt 0.309300 0.786100
vt 0.308400 0.821400
vt 0.299100 0.694800
vn 0.274366 0.148098 0.950153
vn 0.260672 0.076299 0.962408
vn 0.271943 0.148594 0.950772
vn 0.259545 0.074700 0.962838
vn 0.260672 0.076299 0.962408
vn 0.260268 0.000000 0.965537
vn 0.259545 0.074700 0.962838
vn 0.260268 0.000000 0.965537
vn 0.260268 0.000000 0.965537
vn 0.260268 0.000000 0.965537
vn 0.260268 0.000000 0.965537
vn 0.260268 0.000000 0.965537
vn -0.884935 -0.002200 0.465710
vn -0.915361 0.001800 0.402629
vn -0.890874 0.000400 0.454251
vn -0.918068 0.002000 0.396419
vn -0.900259 -0.004700 0.435329
vn -0.918068 0.002000 0.396419
vn -0.899822 -0.002300 0.436251
vn -0.915361 0.001800 0.402629
vn 0.989252 0.029001 -0.143316
vn 0.989245 0.028699 -0.143427
vn 0.989312 0.028401 -0.143024
vn 0.989258 0.027700 -0.143530
vn 0.990305 0.037798 -0.133670
vn 0.989252 0.029001 -0.143316
vn 0.991274 0.036798 -0.126579
vn 0.989312 0.028401 -0.143024
vn 0.999131 0.027100 -0.031677
vn 0.998349 0.030700 -0.048547
vn 0.991274 0.036798 -0.126579
vn 0.990305 0.037798 -0.133670
vn 0.156243 0.924021 0.348960
vn 0.190663 0.941677 0.277294
vn 0.122029 0.901136 0.416009
vn 0.148515 0.919258 0.364566
vn -0.899727 -0.002900 0.436444
vn -0.898852 -0.008100 0.438177
vn -0.899822 -0.002300 0.436251
vn -0.900259 -0.004700 0.435329
vn 0.080217 -0.971363 0.223650
vn 0.067811 -0.973781 0.217144
vn 0.074842 -0.960692 0.267337
vn 0.071794 -0.961187 0.266392
s 1
g polySurface4 B_Electric_0_007_1
usemtl lambert12SG
f 4/2/1 5/3/2 3/1/3
f 3/1/3 5/3/2 6/4/4
s 2
f 5/3/5 7/5/6 6/4/7
f 6/4/7 7/5/6 8/6/8
s 3
f 7/5/9 9/7/10 8/6/11
f 8/6/11 9/7/10 10/8/12
s 4
f 14/9/13 13/10/14 4/2/15
f 4/2/15 13/10/14 5/3/16
s 5
f 7/5/17 5/3/18 15/11/19
f 15/11/19 5/3/18 13/10/20
s 6
f 8/6/21 10/8/22 11/12/23
f 11/12/23 10/8/22 1/13/24
s 7
f 6/4/25 8/6/26 12/14/27
f 12/14/27 8/6/26 11/12/28
s 8
f 16/15/29 3/1/30 12/14/31
f 12/14/31 3/1/30 6/4/32
s 9
f 14/9/33 4/2/34 16/15/35
f 16/15/35 4/2/34 3/1/36
s 10
f 2/16/37 9/7/38 15/11/39
f 15/11/39 9/7/38 7/5/40
s 11
f 10/8/41 9/7/42 1/13/43
f 1/13/43 9/7/42 2/16/44
