# This file uses centimeters as units for non-parametric coordinates.

mtllib FridgePuertaInferior.mtl
g default
v 0.473402 0.455318 0.074273
v 0.473402 -0.002867 0.074269
v 0.472757 0.006156 0.035272
v 0.472757 0.459283 0.035272
v -0.240979 -0.002867 0.073341
v -0.479108 -0.002867 0.073031
v -0.477507 0.006156 0.034034
v -0.239943 0.006156 0.034344
v 0.473402 1.829871 0.074273
v 0.472757 1.818676 0.035272
v 0.235189 1.818676 0.034962
v 0.235273 1.829871 0.073962
v -0.479108 1.371687 0.073031
v -0.479108 1.829871 0.073031
v -0.477507 1.818676 0.034034
v -0.477507 1.365545 0.034034
v -0.232978 1.360435 0.114912
v -0.232978 1.806280 0.114912
v 0.235189 0.006156 0.034962
v 0.235189 0.459283 0.034962
v 0.473402 1.371687 0.074273
v 0.455963 1.806280 0.115809
v 0.455963 1.360435 0.115809
v 0.235273 -0.002867 0.073962
v 0.455963 0.022904 0.115809
v 0.226316 0.022904 0.115509
v -0.240979 1.829871 0.073341
v -0.385352 1.829871 0.073153
v -0.479108 0.455318 0.073031
v -0.462625 0.022904 0.114612
v -0.462625 0.468749 0.114612
v 0.473402 0.913502 0.074273
v 0.472757 0.912414 0.035272
v 0.472757 1.365545 0.035272
v -0.479108 0.913502 0.073031
v -0.477507 0.912414 0.034034
v -0.477507 0.459283 0.034034
v -0.232978 0.914590 0.114912
v -0.462625 0.914590 0.114612
v -0.232978 0.468749 0.114912
v -0.239943 0.912414 0.034344
v -0.239943 1.365545 0.034344
v 0.455963 0.914590 0.115809
v 0.455963 0.468749 0.115809
v -0.462625 1.360435 0.114612
v -0.239943 0.459283 0.034344
v -0.232978 0.022904 0.114912
v -0.239943 1.818676 0.034344
v -0.462625 1.806280 0.114612
v -0.002853 -0.002867 0.073652
v -0.002375 0.006156 0.034651
v -0.002853 1.829871 0.073652
v -0.002375 1.818676 0.034655
v -0.003331 1.806280 0.115212
v -0.003331 1.360435 0.115212
v 0.226316 1.360435 0.115509
v 0.226316 1.806280 0.115509
v -0.002375 0.459283 0.034651
v -0.003331 0.022904 0.115212
v -0.003331 0.914590 0.115212
v -0.003331 0.468749 0.115212
v 0.226316 0.468749 0.115509
v 0.226316 0.914590 0.115509
v -0.002375 0.912414 0.034655
v -0.002375 1.365545 0.034655
v 0.235189 1.365545 0.034962
v 0.235189 0.912414 0.034962
v -0.354015 1.806280 0.114755
v -0.359958 1.360435 0.114748
v -0.362898 1.139612 0.114741
v -0.407877 1.140791 0.114686
v -0.406066 1.360435 0.114686
v -0.402387 1.806280 0.114693
vt 0.509100 0.338800
vt 0.509100 0.224700
vt 0.511100 0.222500
vt 0.511100 0.337600
vt 0.341700 0.224700
vt 0.282900 0.224700
vt 0.281000 0.222500
vt 0.340800 0.222500
vt 0.509100 0.681100
vt 0.511100 0.682800
vt 0.453000 0.682800
vt 0.451900 0.681100
vt 0.282900 0.567000
vt 0.282900 0.681100
vt 0.281000 0.682800
vt 0.281000 0.567700
vt 0.312100 0.679300
vt 0.310600 0.566200
vt 0.342600 0.566200
vt 0.342600 0.679300
vt 0.751700 0.336300
vt 0.751700 0.220400
vt 0.805700 0.220400
vt 0.805700 0.336300
vt 0.509100 0.567000
vt 0.507100 0.679300
vt 0.507100 0.566200
vt 0.451900 0.224700
vt 0.507100 0.226800
vt 0.450900 0.226800
vt 0.341700 0.681100
vt 0.306100 0.681100
vt 0.312100 0.679300
vt 0.282900 0.338800
vt 0.284800 0.226800
vt 0.284800 0.339900
vt 0.509100 0.452900
vt 0.511100 0.452700
vt 0.511100 0.567700
vt 0.282900 0.452900
vt 0.281000 0.452700
vt 0.281000 0.337600
vt 0.342600 0.453100
vt 0.284800 0.453100
vt 0.342600 0.339900
vt 0.913800 0.452300
vt 0.967800 0.452300
vt 0.967800 0.568200
vt 0.913800 0.568200
vt 0.507100 0.453100
vt 0.507100 0.339900
vt 0.284800 0.566200
vt 0.913800 0.336300
vt 0.967800 0.336300
vt 0.342600 0.226800
vt 0.967800 0.684100
vt 0.913800 0.684100
vt 0.284800 0.679300
vt 0.394700 0.224700
vt 0.394800 0.222500
vt 0.453000 0.222500
vt 0.394700 0.681100
vt 0.394800 0.682800
vt 0.340800 0.682800
vt 0.394700 0.679300
vt 0.394700 0.566200
vt 0.450900 0.566200
vt 0.450900 0.679300
vt 0.859800 0.336300
vt 0.859800 0.220400
vt 0.913800 0.220400
vt 0.394700 0.226800
vt 0.394700 0.453100
vt 0.394700 0.339900
vt 0.450900 0.339900
vt 0.450900 0.453100
vt 0.859800 0.452300
vt 0.859800 0.568200
vt 0.805700 0.568200
vt 0.805700 0.452300
vt 0.859800 0.684100
vt 0.805700 0.684100
vt 0.751700 0.568200
vt 0.751700 0.452300
vt 0.751700 0.684100
vt 0.967800 0.220400
vt 0.300000 0.679300
vt 0.299000 0.566200
vt 0.300000 0.679300
vt 0.298600 0.510500
vt 0.309900 0.510200
vn 0.999863 0.000000 -0.016544
vn 0.999863 0.000000 -0.016544
vn 0.999863 0.000000 -0.016543
vn 0.999863 0.000000 -0.016542
vn -0.000200 -0.992665 0.120896
vn 0.000300 -0.974268 -0.225393
vn -0.000200 -0.986609 0.163102
vn 0.000300 -0.974268 -0.225393
vn -0.000100 0.997679 0.068099
vn 0.000400 0.961161 -0.275989
vn -0.000200 0.993002 0.118100
vn 0.000400 0.961161 -0.275989
vn -0.988807 0.000000 0.149201
vn -0.999159 0.000000 -0.040998
vn -0.985889 0.000000 0.167398
vn -0.999159 0.000000 -0.040998
vn -0.001300 0.000000 0.999999
vn -0.001300 0.000000 0.999999
vn -0.001300 0.000000 0.999999
vn -0.001300 0.000000 0.999999
vn 0.001300 0.000000 -0.999999
vn 0.001300 0.000000 -0.999999
vn 0.001300 0.000000 -0.999999
vn 0.001300 0.000000 -0.999999
vn 0.985148 0.000000 0.171708
vn 0.922032 0.000000 0.387114
vn 0.981919 -0.000000 0.189304
vn 0.922032 -0.000000 0.387114
vn -0.000200 -0.993296 0.115600
vn -0.000700 -0.849875 0.526984
vn -0.000200 -0.986609 0.163102
vn -0.000700 -0.849875 0.526984
vn -0.000200 0.993002 0.118100
vn -0.000700 0.864988 0.501793
vn -0.000200 0.993002 0.118100
vn -0.000600 0.869624 0.493714
vn -0.989938 0.000000 0.141505
vn -0.929624 0.000000 0.368510
vn -0.985889 0.000000 0.167398
vn -0.929624 0.000000 0.368510
vn 0.999864 0.000000 -0.016499
vn 0.999864 0.000000 -0.016499
vn 0.981919 -0.000000 0.189304
vn 0.981919 -0.000000 0.189304
vn -0.999159 0.000000 -0.040998
vn -0.999159 0.000000 -0.040998
vn -0.985889 0.000000 0.167398
vn -0.985889 0.000000 0.167398
vn -0.001300 0.000000 0.999999
vn -0.001300 0.000000 0.999999
vn -0.001300 0.000000 0.999999
vn -0.001300 0.000000 0.999999
vn 0.001300 0.000000 -0.999999
vn 0.001300 0.000000 -0.999999
vn 0.001300 0.000000 -0.999999
vn 0.001300 0.000000 -0.999999
vn 0.922032 -0.000000 0.387114
vn 0.922032 -0.000000 0.387114
vn 0.981919 -0.000000 0.189304
vn 0.981919 -0.000000 0.189304
vn -0.929624 0.000000 0.368510
vn -0.929624 0.000000 0.368510
vn -0.985889 0.000000 0.167398
vn -0.985889 0.000000 0.167398
vn 0.981919 -0.000000 0.189304
vn 0.999864 0.000000 -0.016499
vn 0.981919 -0.000000 0.189304
vn 0.999864 0.000000 -0.016499
vn -0.985889 0.000000 0.167398
vn -0.999159 0.000000 -0.040998
vn -0.985889 0.000000 0.167398
vn -0.999159 0.000000 -0.040998
vn 0.001300 0.000000 -0.999999
vn 0.001300 0.000000 -0.999999
vn 0.001300 0.000000 -0.999999
vn 0.001300 0.000000 -0.999999
vn 0.981919 -0.000000 0.189304
vn 0.922032 -0.000000 0.387114
vn 0.981919 -0.000000 0.189304
vn 0.922032 -0.000000 0.387114
vn -0.985889 0.000000 0.167398
vn -0.929624 0.000000 0.368510
vn -0.985889 0.000000 0.167398
vn -0.929624 0.000000 0.368510
vn 0.999864 0.000000 -0.016499
vn 0.999864 0.000000 -0.016499
vn 0.981919 -0.000000 0.189304
vn 0.985148 0.000000 0.171708
vn -0.999159 0.000000 -0.040998
vn -0.999159 0.000000 -0.040998
vn -0.985889 0.000000 0.167398
vn -0.989938 0.000000 0.141505
vn -0.001300 0.000000 0.999999
vn -0.001300 0.000000 0.999999
vn -0.001300 0.000000 0.999999
vn -0.001300 0.000000 0.999999
vn 0.001300 0.000000 -0.999999
vn 0.001300 0.000000 -0.999999
vn 0.001300 0.000000 -0.999999
vn 0.001300 0.000000 -0.999999
vn 0.922032 -0.000000 0.387114
vn 0.922047 -0.000000 0.387078
vn 0.981919 -0.000000 0.189304
vn 0.986443 -0.000000 0.164107
vn -0.929624 0.000000 0.368510
vn -0.929624 0.000000 0.368510
vn -0.985889 0.000000 0.167398
vn -0.988807 0.000000 0.149201
vn -0.000200 -0.986609 0.163102
vn 0.000300 -0.974268 -0.225393
vn -0.000200 -0.986609 0.163102
vn 0.000300 -0.974268 -0.225393
vn 0.000400 0.961161 -0.275989
vn 0.000400 0.961161 -0.275989
vn -0.000200 0.993002 0.118100
vn -0.000200 0.993002 0.118100
vn -0.001300 0.000000 0.999999
vn -0.001300 0.000000 0.999999
vn -0.001300 0.000000 0.999999
vn -0.001300 0.000000 0.999999
vn 0.001300 0.000000 -0.999999
vn 0.001300 0.000000 -0.999999
vn 0.001300 0.000000 -0.999999
vn 0.001300 0.000000 -0.999999
vn -0.000700 -0.849875 0.526984
vn -0.000700 -0.849875 0.526984
vn -0.000200 -0.986609 0.163102
vn -0.000200 -0.986609 0.163102
vn -0.000600 0.869624 0.493714
vn -0.000600 0.869624 0.493714
vn -0.000200 0.993002 0.118100
vn -0.000200 0.993002 0.118100
vn -0.001300 0.000000 0.999999
vn -0.001300 0.000000 0.999999
vn -0.001300 0.000000 0.999999
vn -0.001300 0.000000 0.999999
vn 0.001300 0.000000 -0.999999
vn 0.001300 0.000000 -0.999999
vn 0.001300 0.000000 -0.999999
vn 0.001300 0.000000 -0.999999
vn -0.001300 0.000000 0.999999
vn -0.001300 0.000000 0.999999
vn -0.001300 0.000000 0.999999
vn -0.001300 0.000000 0.999999
vn 0.001300 0.000000 -0.999999
vn 0.001300 0.000000 -0.999999
vn 0.001300 0.000000 -0.999999
vn 0.001300 0.000000 -0.999999
vn -0.001300 0.000000 0.999999
vn -0.001300 0.000000 0.999999
vn -0.001300 0.000000 0.999999
vn -0.001300 0.000000 0.999999
vn 0.001300 0.000000 -0.999999
vn 0.001300 0.000000 -0.999999
vn 0.001300 0.000000 -0.999999
vn 0.001300 0.000000 -0.999999
vn 0.000400 0.961161 -0.275989
vn 0.000400 0.961161 -0.275989
vn -0.000200 0.993002 0.118100
vn -0.000200 0.993002 0.118100
vn 0.001300 0.000000 -0.999999
vn 0.001300 0.000000 -0.999999
vn 0.001300 0.000000 -0.999999
vn 0.001300 0.000000 -0.999999
vn -0.000200 -0.986609 0.163102
vn -0.000700 -0.849875 0.526984
vn -0.000200 -0.986609 0.163102
vn -0.000700 -0.849875 0.526984
vn 0.000300 -0.974268 -0.225393
vn 0.000300 -0.974268 -0.225393
vn -0.000200 -0.986609 0.163102
vn -0.000200 -0.993296 0.115600
vn -0.001300 0.000000 0.999999
vn -0.001300 0.000000 0.999999
vn -0.001300 0.000000 0.999999
vn -0.001300 0.000000 0.999999
vn -0.000600 0.869624 0.493714
vn -0.000600 0.869624 0.493714
vn -0.000200 0.993002 0.118100
vn -0.000100 0.997679 0.068099
vn -0.001300 0.000000 0.999999
vn -0.001300 0.000000 0.999999
vn -0.001300 0.000000 0.999999
vn -0.001300 0.000000 0.999999
vn 0.001300 0.000000 -0.999999
vn 0.001300 0.000000 -0.999999
vn 0.001300 0.000000 -0.999999
vn 0.001300 0.000000 -0.999999
vn -0.001300 0.000000 0.999999
vn -0.001300 0.000000 0.999999
vn -0.001300 0.000000 0.999999
vn -0.001300 0.000000 0.999999
vn 0.001300 0.000000 -0.999999
vn 0.001300 0.000000 -0.999999
vn 0.001300 0.000000 -0.999999
vn 0.001300 0.000000 -0.999999
vn -0.001300 0.000000 0.999999
vn -0.001300 0.000000 0.999999
vn -0.001300 0.000000 0.999999
vn -0.001300 0.000000 0.999999
vn 0.001300 0.000000 -0.999999
vn 0.001300 0.000000 -0.999999
vn 0.001300 0.000000 -0.999999
vn 0.001300 0.000000 -0.999999
vn -0.000200 -0.986609 0.163102
vn 0.000300 -0.974268 -0.225393
vn -0.000200 -0.986609 0.163102
vn 0.000300 -0.974268 -0.225393
vn -0.001300 0.000000 0.999999
vn -0.001300 0.000000 0.999999
vn -0.001300 0.000000 0.999999
vn -0.001300 0.000000 0.999999
vn -0.000200 0.993002 0.118100
vn -0.000600 0.869624 0.493714
vn -0.000200 0.993002 0.118100
vn -0.000600 0.869624 0.493714
vn -0.001300 0.000000 0.999999
vn -0.001300 0.000000 0.999999
vn -0.001300 0.000000 0.999999
vn -0.001300 0.000000 0.999999
vn 0.001300 0.000000 -0.999999
vn 0.001300 0.000000 -0.999999
vn 0.001300 0.000000 -0.999999
vn 0.001300 0.000000 -0.999999
vn -0.001300 0.000000 0.999999
vn -0.001300 0.000000 0.999999
vn -0.001300 0.000000 0.999999
vn -0.001300 0.000000 0.999999
vn 0.001300 0.000000 -0.999999
vn 0.001300 0.000000 -0.999999
vn 0.001300 0.000000 -0.999999
vn 0.001300 0.000000 -0.999999
vn -0.001300 0.000000 0.999999
vn -0.001300 0.000000 0.999999
vn -0.001300 0.000000 0.999999
vn -0.001300 0.000000 0.999999
vn 0.001300 0.000000 -0.999999
vn 0.001300 0.000000 -0.999999
vn 0.001300 0.000000 -0.999999
vn 0.001300 0.000000 -0.999999
vn 0.000400 0.961161 -0.275989
vn -0.000100 0.997288 0.073599
vn -0.000200 0.993002 0.118100
vn 0.001300 0.000000 -0.999999
vn 0.001300 0.000000 -0.999999
vn 0.001300 0.000000 -0.999999
vn 0.001300 0.000000 -0.999999
vn -0.000700 -0.849875 0.526984
vn -0.000700 -0.849875 0.526984
vn -0.000200 -0.986609 0.163102
vn -0.000200 -0.992665 0.120896
vn -0.000600 0.869624 0.493714
vn -0.004000 0.863220 0.504812
vn -0.000100 0.997288 0.073599
vn -0.000200 0.993002 0.118100
vn -0.001300 0.000000 0.999999
vn -0.001300 0.000000 0.999999
vn -0.001300 0.000000 0.999999
vn -0.001300 0.000000 0.999999
vn -0.001300 0.000000 0.999999
vn -0.001300 0.000000 0.999999
vn -0.001300 0.000000 0.999999
vn -0.001300 0.000000 0.999999
vn -0.004000 0.863220 0.504812
vn -0.000700 0.864988 0.501793
vn -0.000200 0.993002 0.118100
vn -0.000200 0.993002 0.118100
vn 0.000400 0.961161 -0.275989
vn -0.000200 0.993002 0.118100
vn 0.000400 0.961161 -0.275989
vn -0.001300 0.000000 0.999999
vn -0.001300 0.000000 0.999999
vn -0.001300 0.000000 0.999999
vn -0.001300 0.000000 0.999999
vn -0.001300 0.000000 0.999999
vn -0.001300 0.000000 0.999999
vn -0.001300 0.000000 0.999999
vn -0.001300 0.000000 0.999999
s 1
g polySurface1 B_Electric_0_007_2
usemtl lambert7SG
f 2/2/1 3/3/2 1/1/3
f 1/1/3 3/3/2 4/4/4
s 2
f 6/6/5 7/7/6 5/5/7
f 5/5/7 7/7/6 8/8/8
s 3
f 9/9/9 10/10/10 12/12/11
f 12/12/11 10/10/10 11/11/12
s 4
f 14/14/13 15/15/14 13/13/15
f 13/13/15 15/15/14 16/16/16
s 5
f 69/18/17 17/19/18 68/17/19
f 68/17/19 17/19/18 18/20/20
s 6
f 4/21/21 3/22/22 20/24/23
f 20/24/23 3/22/22 19/23/24
s 7
f 9/9/25 22/26/26 21/25/27
f 21/25/27 22/26/26 23/27/28
s 8
f 2/2/29 25/29/30 24/28/31
f 24/28/31 25/29/30 26/30/32
s 9
f 28/32/33 68/33/34 27/31/35
f 27/31/35 68/33/34 18/20/36
s 10
f 6/6/37 30/35/38 29/34/39
f 29/34/39 30/35/38 31/36/40
s 11
f 33/38/41 34/39/42 32/37/43
f 32/37/43 34/39/42 21/25/44
s 12
f 36/41/45 37/42/46 35/40/47
f 35/40/47 37/42/46 29/34/48
s 13
f 38/43/49 39/44/50 40/45/51
f 40/45/51 39/44/50 31/36/52
s 14
f 41/46/53 36/47/54 42/49/55
f 42/49/55 36/47/54 16/48/56
s 15
f 43/50/57 44/51/58 32/37/59
f 32/37/59 44/51/58 1/1/60
s 16
f 39/44/61 45/52/62 35/40/63
f 35/40/63 45/52/62 13/13/64
s 17
f 1/1/65 4/4/66 32/37/67
f 32/37/67 4/4/66 33/38/68
s 18
f 13/13/69 16/16/70 35/40/71
f 35/40/71 16/16/70 36/41/72
s 19
f 46/53/73 37/54/74 41/46/75
f 41/46/75 37/54/74 36/47/76
s 20
f 21/25/77 23/27/78 32/37/79
f 32/37/79 23/27/78 43/50/80
s 21
f 29/34/81 31/36/82 35/40/83
f 35/40/83 31/36/82 39/44/84
s 22
f 34/39/85 10/10/86 21/25/87
f 21/25/87 10/10/86 9/9/88
s 23
f 37/42/89 7/7/90 29/34/91
f 29/34/91 7/7/90 6/6/92
s 24
f 40/45/93 31/36/94 47/55/95
f 47/55/95 31/36/94 30/35/96
s 25
f 42/49/97 16/48/98 48/57/99
f 48/57/99 16/48/98 15/56/100
s 26
f 44/51/101 25/29/102 1/1/103
f 1/1/103 25/29/102 2/2/104
s 27
f 45/52/105 49/58/106 13/13/107
f 13/13/107 49/58/106 14/14/108
s 28
f 50/59/109 51/60/110 24/28/111
f 24/28/111 51/60/110 19/61/112
s 29
f 53/63/113 48/64/114 52/62/115
f 52/62/115 48/64/114 27/31/116
s 30
f 54/65/117 55/66/118 57/68/119
f 57/68/119 55/66/118 56/67/120
s 31
f 58/69/121 51/70/122 46/53/123
f 46/53/123 51/70/122 8/71/124
s 32
f 59/72/125 47/55/126 50/59/127
f 50/59/127 47/55/126 5/5/128
s 33
f 54/65/129 57/68/130 52/62/131
f 52/62/131 57/68/130 12/12/132
s 34
f 60/73/133 61/74/134 63/76/135
f 63/76/135 61/74/134 62/75/136
s 35
f 64/77/137 65/78/138 67/80/139
f 67/80/139 65/78/138 66/79/140
s 36
f 55/66/141 60/73/142 56/67/143
f 56/67/143 60/73/142 63/76/144
s 37
f 58/69/145 64/77/146 20/24/147
f 20/24/147 64/77/146 67/80/148
s 38
f 61/74/149 59/72/150 62/75/151
f 62/75/151 59/72/150 26/30/152
s 39
f 65/78/153 53/81/154 66/79/155
f 66/79/155 53/81/154 11/82/156
s 40
f 11/11/157 53/63/158 12/12/159
f 12/12/159 53/63/158 52/62/160
s 41
f 20/24/161 19/23/162 58/69/163
f 58/69/163 19/23/162 51/70/164
s 42
f 24/28/165 26/30/166 50/59/167
f 50/59/167 26/30/166 59/72/168
s 43
f 19/61/169 3/3/170 24/28/171
f 24/28/171 3/3/170 2/2/172
s 44
f 57/68/173 56/67/174 22/26/175
f 22/26/175 56/67/174 23/27/176
s 45
f 57/68/177 22/26/178 12/12/179
f 12/12/179 22/26/178 9/9/180
s 46
f 63/76/181 62/75/182 43/50/183
f 43/50/183 62/75/182 44/51/184
s 47
f 67/80/185 66/79/186 33/84/187
f 33/84/187 66/79/186 34/83/188
s 48
f 56/67/189 63/76/190 23/27/191
f 23/27/191 63/76/190 43/50/192
s 49
f 20/24/193 67/80/194 4/21/195
f 4/21/195 67/80/194 33/84/196
s 50
f 62/75/197 26/30/198 44/51/199
f 44/51/199 26/30/198 25/29/200
s 51
f 66/79/201 11/82/202 34/83/203
f 34/83/203 11/82/202 10/85/204
s 52
f 5/5/205 8/8/206 50/59/207
f 50/59/207 8/8/206 51/60/208
s 53
f 18/20/209 17/19/210 54/65/211
f 54/65/211 17/19/210 55/66/212
s 54
f 27/31/213 18/20/214 52/62/215
f 52/62/215 18/20/214 54/65/216
s 55
f 38/43/217 40/45/218 60/73/219
f 60/73/219 40/45/218 61/74/220
s 56
f 41/46/221 42/49/222 64/77/223
f 64/77/223 42/49/222 65/78/224
s 57
f 17/19/225 38/43/226 55/66/227
f 55/66/227 38/43/226 60/73/228
s 58
f 46/53/229 41/46/230 58/69/231
f 58/69/231 41/46/230 64/77/232
s 59
f 40/45/233 47/55/234 61/74/235
f 61/74/235 47/55/234 59/72/236
s 60
f 42/49/237 48/57/238 65/78/239
f 65/78/239 48/57/238 53/81/240
s off
f 15/15/241 14/14/242 28/32/243
s 61
f 46/53/244 8/71/245 37/54/246
f 37/54/246 8/71/245 7/86/247
s 62
f 47/55/248 30/35/249 5/5/250
f 5/5/250 30/35/249 6/6/251
s 63
f 49/58/252 73/87/253 14/14/254
f 14/14/254 73/87/253 28/32/255
s 64
f 73/89/256 49/58/257 72/88/258
f 72/88/258 49/58/257 45/52/259
s 65
f 72/88/260 45/52/261 71/90/262
f 71/90/262 45/52/261 39/44/263
s off
f 73/89/264 68/17/265 28/32/266
s 66
f 27/31/267 48/64/268 28/32/269
f 28/32/269 48/64/268 15/15/270
s 67
f 71/90/271 39/44/272 70/91/273
f 70/91/273 39/44/272 38/43/274
s 68
f 38/43/275 17/19/276 70/91/277
f 70/91/277 17/19/276 69/18/278
